<svg xmlns="http://www.w3.org/2000/svg" width="650.3332099679081" height="672" viewBox="0 0 650.3332099679081 672"><rect width="100%" height="100%" fill="#282a36"></rect><defs><filter id="ledGlow" x="-50%" y="-50%" width="200%" height="200%"><feGaussianBlur stdDeviation="2" result="blur"></feGaussianBlur><feMerge><feMergeNode in="blur"></feMergeNode><feMergeNode in="SourceGraphic"></feMergeNode></feMerge></filter></defs><g transform="translate(146.60254037844388, 422)"><polygon points="138.5640646055102,79.99999999999999 51.96152422706632,129.99999999999997 51.96152422706632,121.99999999999997 138.5640646055102,71.99999999999999" fill="#1e2130"></polygon><polygon points="0,-8 138.5640646055102,71.99999999999999 51.96152422706632,121.99999999999997 -86.60254037844388,41.99999999999999" fill="#1a1c26"></polygon><polygon points="0,0 138.5640646055102,79.99999999999999 138.5640646055102,71.99999999999999 0,-8" fill="#2d3142"></polygon><polygon points="138.5640646055102,-144 51.96152422706632,-94.00000000000003 51.96152422706632,-102.00000000000003 138.5640646055102,-152" fill="#1e2130"></polygon><polygon points="0,-232 138.5640646055102,-152 51.96152422706632,-102.00000000000003 -86.60254037844388,-182" fill="#646879"></polygon><polygon points="0,-224 138.5640646055102,-144 138.5640646055102,-152 0,-232" fill="#3d4258"></polygon><polygon points="0,-8 -86.60254037844388,41.99999999999999 -86.60254037844388,-174 0,-224" fill="#1e2130"></polygon><polygon points="138.5640646055102,71.99999999999999 51.96152422706632,121.99999999999997 51.96152422706632,-94.00000000000003 138.5640646055102,-144" fill="#1e2130"></polygon><polygon points="131.6358613752347,-148 138.5640646055102,-144 51.96152422706632,-94.00000000000003 45.03332099679081,-98.00000000000001" fill="#3d4258"></polygon><polygon points="125.57368354874362,57.899999999999984 64.9519052838329,92.89999999999998 64.9519052838329,89.89999999999998 125.57368354874362,54.899999999999984" fill="#1a1c26"></polygon><polygon points="125.57368354874362,36.29999999999998 64.9519052838329,71.29999999999998 64.9519052838329,68.29999999999998 125.57368354874362,33.29999999999998" fill="#1a1c26"></polygon><polygon points="125.57368354874362,14.699999999999974 64.9519052838329,49.699999999999974 64.9519052838329,46.699999999999974 125.57368354874362,11.699999999999974" fill="#1a1c26"></polygon><polygon points="125.57368354874362,-6.90000000000002 64.9519052838329,28.09999999999998 64.9519052838329,25.09999999999998 125.57368354874362,-9.90000000000002" fill="#1a1c26"></polygon><polygon points="125.57368354874362,-28.500000000000014 64.9519052838329,6.499999999999986 64.9519052838329,3.499999999999986 125.57368354874362,-31.500000000000014" fill="#1a1c26"></polygon><polygon points="125.57368354874362,-50.10000000000004 64.9519052838329,-15.100000000000037 64.9519052838329,-18.100000000000037 125.57368354874362,-53.10000000000004" fill="#1a1c26"></polygon><polygon points="125.57368354874362,-71.70000000000003 64.9519052838329,-36.70000000000003 64.9519052838329,-39.70000000000003 125.57368354874362,-74.70000000000003" fill="#1a1c26"></polygon><polygon points="125.57368354874362,-93.30000000000003 64.9519052838329,-58.300000000000026 64.9519052838329,-61.300000000000026 125.57368354874362,-96.30000000000003" fill="#1a1c26"></polygon><polygon points="125.57368354874362,-114.90000000000002 64.9519052838329,-79.90000000000002 64.9519052838329,-82.90000000000002 125.57368354874362,-117.90000000000002" fill="#1a1c26"></polygon><polygon points="-79.67433714816836,45.99999999999999 45.03332099679081,117.99999999999999 45.03332099679081,-98.00000000000001 -79.67433714816836,-170" fill="#1a1c26"></polygon><polygon points="15.588457268119896,0.9999999999999982 12.124355652982143,2.9999999999999982 12.124355652982143,-213 15.588457268119896,-215" fill="#30323f" stroke="#363948" stroke-width="1"></polygon><polygon points="10.392304845413264,-218 15.588457268119896,-215 12.124355652982143,-213 6.92820323027551,-216" fill="#696c7b" stroke="#363948" stroke-width="1"></polygon><polygon points="10.392304845413264,-2.000000000000001 15.588457268119896,0.9999999999999982 15.588457268119896,-215 10.392304845413264,-218" fill="#44475a" stroke="#363948" stroke-width="1"></polygon><polygon points="128.17175976009693,65.99999999999999 124.70765814495917,67.99999999999999 124.70765814495917,-148 128.17175976009693,-150" fill="#30323f" stroke="#363948" stroke-width="1"></polygon><polygon points="122.9756073373903,-153 128.17175976009693,-150 124.70765814495917,-148 119.51150572225254,-151" fill="#696c7b" stroke="#363948" stroke-width="1"></polygon><polygon points="122.9756073373903,62.999999999999986 128.17175976009693,65.99999999999999 128.17175976009693,-150 122.9756073373903,-153" fill="#44475a" stroke="#363948" stroke-width="1"></polygon><circle cx="12.99038105676658" cy="-9.5" r="1.5" fill="#282a36"></circle><circle cx="125.57368354874362" cy="55.499999999999986" r="1.5" fill="#282a36"></circle><circle cx="12.99038105676658" cy="-27.5" r="1.5" fill="#282a36"></circle><circle cx="125.57368354874362" cy="37.499999999999986" r="1.5" fill="#282a36"></circle><circle cx="12.99038105676658" cy="-45.5" r="1.5" fill="#282a36"></circle><circle cx="125.57368354874362" cy="19.499999999999986" r="1.5" fill="#282a36"></circle><circle cx="12.99038105676658" cy="-63.5" r="1.5" fill="#282a36"></circle><circle cx="125.57368354874362" cy="1.4999999999999858" r="1.5" fill="#282a36"></circle><circle cx="12.99038105676658" cy="-81.5" r="1.5" fill="#282a36"></circle><circle cx="125.57368354874362" cy="-16.500000000000014" r="1.5" fill="#282a36"></circle><circle cx="12.99038105676658" cy="-99.5" r="1.5" fill="#282a36"></circle><circle cx="125.57368354874362" cy="-34.500000000000014" r="1.5" fill="#282a36"></circle><circle cx="12.99038105676658" cy="-117.5" r="1.5" fill="#282a36"></circle><circle cx="125.57368354874362" cy="-52.500000000000014" r="1.5" fill="#282a36"></circle><circle cx="12.99038105676658" cy="-135.5" r="1.5" fill="#282a36"></circle><circle cx="125.57368354874362" cy="-70.50000000000001" r="1.5" fill="#282a36"></circle><circle cx="12.99038105676658" cy="-153.5" r="1.5" fill="#282a36"></circle><circle cx="125.57368354874362" cy="-88.50000000000001" r="1.5" fill="#282a36"></circle><circle cx="12.99038105676658" cy="-171.5" r="1.5" fill="#282a36"></circle><circle cx="125.57368354874362" cy="-106.50000000000001" r="1.5" fill="#282a36"></circle><circle cx="12.99038105676658" cy="-189.5" r="1.5" fill="#282a36"></circle><circle cx="125.57368354874362" cy="-124.50000000000001" r="1.5" fill="#282a36"></circle><circle cx="12.99038105676658" cy="-207.5" r="1.5" fill="#282a36"></circle><circle cx="125.57368354874362" cy="-142.5" r="1.5" fill="#282a36"></circle><circle cx="4.330127018922194" cy="-219.5" r="3" fill="#50fa7b" filter="url(#ledGlow)"></circle><circle cx="11.258330249197703" cy="-215.5" r="3" fill="#50fa7b" filter="url(#ledGlow)"></circle><circle cx="18.186533479473212" cy="-211.5" r="3" fill="#ff5555" filter="url(#ledGlow)"></circle><polygon points="119.51150572225254,62.999999999999986 41.569219381653056,107.99999999999999 41.569219381653056,72.99999999999999 119.51150572225254,27.999999999999986" fill="#3cbc5c" stroke="#30964a" stroke-width="1"></polygon><polygon points="15.588457268119896,-32 119.51150572225254,27.999999999999986 41.569219381653056,72.99999999999999 -62.353829072479584,12.999999999999993" fill="#6afb8f" stroke="#30964a" stroke-width="1"></polygon><polygon points="15.588457268119896,2.9999999999999982 119.51150572225254,62.999999999999986 119.51150572225254,27.999999999999986 15.588457268119896,-32" fill="#50fa7b" stroke="#30964a" stroke-width="1"></polygon><line x1="21.65063509461097" y1="-2.700000000000001" x2="116.91342951089922" y2="52.29999999999998" stroke="#44d569" stroke-width="1"></line><line x1="21.65063509461097" y1="-9.9" x2="116.91342951089922" y2="45.09999999999999" stroke="#44d569" stroke-width="1"></line><line x1="21.65063509461097" y1="-17.1" x2="116.91342951089922" y2="37.899999999999984" stroke="#44d569" stroke-width="1"></line><line x1="21.65063509461097" y1="-24.299999999999997" x2="116.91342951089922" y2="30.69999999999999" stroke="#44d569" stroke-width="1"></line><polygon points="119.51150572225254,26.999999999999986 84.870489570875,46.999999999999986 84.870489570875,29.999999999999986 119.51150572225254,9.999999999999986" fill="#4a567b" stroke="#3b4462" stroke-width="1"></polygon><polygon points="15.588457268119896,-50 119.51150572225254,9.999999999999986 84.870489570875,29.999999999999986 -19.052558883257653,-30.000000000000004" fill="#7a87b2" stroke="#3b4462" stroke-width="1"></polygon><polygon points="15.588457268119896,-33 119.51150572225254,26.999999999999986 119.51150572225254,9.999999999999986 15.588457268119896,-50" fill="#6272a4" stroke="#3b4462" stroke-width="1"></polygon><line x1="21.65063509461097" y1="-37.5" x2="116.91342951089922" y2="17.499999999999986" stroke="#53618b" stroke-width="1"></line><line x1="21.65063509461097" y1="-43.5" x2="116.91342951089922" y2="11.499999999999986" stroke="#53618b" stroke-width="1"></line><polygon points="119.51150572225254,8.999999999999986 84.870489570875,28.999999999999986 84.870489570875,11.999999999999986 119.51150572225254,-8.000000000000014" fill="#68afbe" stroke="#538c98" stroke-width="1"></polygon><polygon points="15.588457268119896,-68 119.51150572225254,-8.000000000000014 84.870489570875,11.999999999999986 -19.052558883257653,-48" fill="#9cecfd" stroke="#538c98" stroke-width="1"></polygon><polygon points="15.588457268119896,-51 119.51150572225254,8.999999999999986 119.51150572225254,-8.000000000000014 15.588457268119896,-68" fill="#8be9fd" stroke="#538c98" stroke-width="1"></polygon><line x1="21.65063509461097" y1="-55.5" x2="116.91342951089922" y2="-0.5000000000000142" stroke="#76c6d7" stroke-width="1"></line><line x1="21.65063509461097" y1="-61.5" x2="116.91342951089922" y2="-6.500000000000014" stroke="#76c6d7" stroke-width="1"></line><circle cx="24.248711305964285" cy="-60" r="2" fill="#50fa7b"></circle><circle cx="29.444863728670917" cy="-57" r="2" fill="#50fa7b"></circle><circle cx="34.64101615137755" cy="-54" r="2" fill="#ffb86c"></circle><circle cx="39.83716857408418" cy="-51" r="2" fill="#ffb86c"></circle><polygon points="119.51150572225254,-9.000000000000014 41.569219381653056,35.999999999999986 41.569219381653056,0.9999999999999858 119.51150572225254,-44.000000000000014" fill="#8e6ebb" stroke="#715895" stroke-width="1"></polygon><polygon points="15.588457268119896,-104 119.51150572225254,-44.000000000000014 41.569219381653056,0.9999999999999858 -62.353829072479584,-59.00000000000001" fill="#c7a3fa" stroke="#715895" stroke-width="1"></polygon><polygon points="15.588457268119896,-69 119.51150572225254,-9.000000000000014 119.51150572225254,-44.000000000000014 15.588457268119896,-104" fill="#bd93f9" stroke="#715895" stroke-width="1"></polygon><line x1="21.65063509461097" y1="-74.7" x2="116.91342951089922" y2="-19.700000000000017" stroke="#a17dd4" stroke-width="1"></line><line x1="21.65063509461097" y1="-81.9" x2="116.91342951089922" y2="-26.90000000000002" stroke="#a17dd4" stroke-width="1"></line><line x1="21.65063509461097" y1="-89.1" x2="116.91342951089922" y2="-34.10000000000001" stroke="#a17dd4" stroke-width="1"></line><line x1="21.65063509461097" y1="-96.3" x2="116.91342951089922" y2="-41.30000000000001" stroke="#a17dd4" stroke-width="1"></line><circle cx="24.248711305964285" cy="-96" r="2" fill="#50fa7b"></circle><circle cx="29.444863728670917" cy="-93" r="2" fill="#50fa7b"></circle><circle cx="34.64101615137755" cy="-90" r="2" fill="#ffb86c"></circle><circle cx="39.83716857408418" cy="-87" r="2" fill="#ffb86c"></circle><polygon points="119.51150572225254,-45.000000000000014 41.569219381653056,-1.4210854715202004e-14 41.569219381653056,-71.00000000000001 119.51150572225254,-116.00000000000001" fill="#bf8a51" stroke="#996e41" stroke-width="1"></polygon><polygon points="15.588457268119896,-176 119.51150572225254,-116.00000000000001 41.569219381653056,-71.00000000000001 -62.353829072479584,-131" fill="#ffc382" stroke="#996e41" stroke-width="1"></polygon><polygon points="15.588457268119896,-105 119.51150572225254,-45.000000000000014 119.51150572225254,-116.00000000000001 15.588457268119896,-176" fill="#ffb86c" stroke="#996e41" stroke-width="1"></polygon><line x1="21.65063509461097" y1="-110.7" x2="116.91342951089922" y2="-55.70000000000002" stroke="#d99c5c" stroke-width="1"></line><line x1="21.65063509461097" y1="-117.9" x2="116.91342951089922" y2="-62.90000000000002" stroke="#d99c5c" stroke-width="1"></line><line x1="21.65063509461097" y1="-125.1" x2="116.91342951089922" y2="-70.10000000000001" stroke="#d99c5c" stroke-width="1"></line><line x1="21.65063509461097" y1="-132.3" x2="116.91342951089922" y2="-77.30000000000003" stroke="#d99c5c" stroke-width="1"></line><line x1="21.65063509461097" y1="-139.5" x2="116.91342951089922" y2="-84.50000000000001" stroke="#d99c5c" stroke-width="1"></line><line x1="21.65063509461097" y1="-146.7" x2="116.91342951089922" y2="-91.7" stroke="#d99c5c" stroke-width="1"></line><line x1="21.65063509461097" y1="-153.9" x2="116.91342951089922" y2="-98.90000000000002" stroke="#d99c5c" stroke-width="1"></line><line x1="21.65063509461097" y1="-161.1" x2="116.91342951089922" y2="-106.10000000000001" stroke="#d99c5c" stroke-width="1"></line><line x1="21.65063509461097" y1="-168.3" x2="116.91342951089922" y2="-113.30000000000003" stroke="#d99c5c" stroke-width="1"></line><polygon points="92.66471820493494,-81 114.3153532995459,-68.50000000000001 114.3153532995459,-57.000000000000014 92.66471820493494,-69.5" fill="#cc9356" stroke="#996e41" stroke-width="1"></polygon><circle cx="95.26279441628826" cy="-73.75" r="1.5" fill="#50fa7b"></circle><polygon points="92.66471820493494,-96.5 114.3153532995459,-84.00000000000001 114.3153532995459,-72.50000000000001 92.66471820493494,-85" fill="#cc9356" stroke="#996e41" stroke-width="1"></polygon><circle cx="95.26279441628826" cy="-89.25" r="1.5" fill="#50fa7b"></circle><polygon points="92.66471820493494,-112 114.3153532995459,-99.50000000000001 114.3153532995459,-88.00000000000001 92.66471820493494,-100.5" fill="#cc9356" stroke="#996e41" stroke-width="1"></polygon><circle cx="95.26279441628826" cy="-104.75" r="1.5" fill="#50fa7b"></circle><polygon points="92.66471820493494,-127.5 114.3153532995459,-115.00000000000001 114.3153532995459,-103.50000000000001 92.66471820493494,-116" fill="#cc9356" stroke="#996e41" stroke-width="1"></polygon><circle cx="95.26279441628826" cy="-120.25" r="1.5" fill="#50fa7b"></circle><polygon points="119.51150572225254,-117.00000000000001 84.870489570875,-97.00000000000001 84.870489570875,-114.00000000000001 119.51150572225254,-134" fill="#333544" stroke="#292b36" stroke-width="1"></polygon><polygon points="15.588457268119896,-194 119.51150572225254,-134 84.870489570875,-114.00000000000001 -19.052558883257653,-174" fill="#606373" stroke="#292b36" stroke-width="1"></polygon><polygon points="15.588457268119896,-177 119.51150572225254,-117.00000000000001 119.51150572225254,-134 15.588457268119896,-194" fill="#44475a" stroke="#292b36" stroke-width="1"></polygon><line x1="21.65063509461097" y1="-181.5" x2="116.91342951089922" y2="-126.50000000000001" stroke="#3a3c4d" stroke-width="1"></line><line x1="21.65063509461097" y1="-187.5" x2="116.91342951089922" y2="-132.5" stroke="#3a3c4d" stroke-width="1"></line></g><text x="215.88457268119896" y="442" fill="#6272a4" font-family="Inter, system-ui, sans-serif" font-size="11" text-anchor="middle">FRONT</text><g transform="translate(451.7691453623979, 422)"><polygon points="138.5640646055102,79.99999999999999 51.96152422706632,129.99999999999997 51.96152422706632,121.99999999999997 138.5640646055102,71.99999999999999" fill="#1e2130"></polygon><polygon points="0,-8 138.5640646055102,71.99999999999999 51.96152422706632,121.99999999999997 -86.60254037844388,41.99999999999999" fill="#1a1c26"></polygon><polygon points="0,0 138.5640646055102,79.99999999999999 138.5640646055102,71.99999999999999 0,-8" fill="#2d3142"></polygon><polygon points="138.5640646055102,-144 51.96152422706632,-94.00000000000003 51.96152422706632,-102.00000000000003 138.5640646055102,-152" fill="#1e2130"></polygon><polygon points="0,-232 138.5640646055102,-152 51.96152422706632,-102.00000000000003 -86.60254037844388,-182" fill="#646879"></polygon><polygon points="0,-224 138.5640646055102,-144 138.5640646055102,-152 0,-232" fill="#3d4258"></polygon><polygon points="0,-8 -86.60254037844388,41.99999999999999 -86.60254037844388,-174 0,-224" fill="#1e2130"></polygon><polygon points="138.5640646055102,71.99999999999999 51.96152422706632,121.99999999999997 51.96152422706632,-94.00000000000003 138.5640646055102,-144" fill="#1e2130"></polygon><polygon points="131.6358613752347,-148 138.5640646055102,-144 51.96152422706632,-94.00000000000003 45.03332099679081,-98.00000000000001" fill="#3d4258"></polygon><polygon points="125.57368354874362,57.899999999999984 64.9519052838329,92.89999999999998 64.9519052838329,89.89999999999998 125.57368354874362,54.899999999999984" fill="#1a1c26"></polygon><polygon points="125.57368354874362,36.29999999999998 64.9519052838329,71.29999999999998 64.9519052838329,68.29999999999998 125.57368354874362,33.29999999999998" fill="#1a1c26"></polygon><polygon points="125.57368354874362,14.699999999999974 64.9519052838329,49.699999999999974 64.9519052838329,46.699999999999974 125.57368354874362,11.699999999999974" fill="#1a1c26"></polygon><polygon points="125.57368354874362,-6.90000000000002 64.9519052838329,28.09999999999998 64.9519052838329,25.09999999999998 125.57368354874362,-9.90000000000002" fill="#1a1c26"></polygon><polygon points="125.57368354874362,-28.500000000000014 64.9519052838329,6.499999999999986 64.9519052838329,3.499999999999986 125.57368354874362,-31.500000000000014" fill="#1a1c26"></polygon><polygon points="125.57368354874362,-50.10000000000004 64.9519052838329,-15.100000000000037 64.9519052838329,-18.100000000000037 125.57368354874362,-53.10000000000004" fill="#1a1c26"></polygon><polygon points="125.57368354874362,-71.70000000000003 64.9519052838329,-36.70000000000003 64.9519052838329,-39.70000000000003 125.57368354874362,-74.70000000000003" fill="#1a1c26"></polygon><polygon points="125.57368354874362,-93.30000000000003 64.9519052838329,-58.300000000000026 64.9519052838329,-61.300000000000026 125.57368354874362,-96.30000000000003" fill="#1a1c26"></polygon><polygon points="125.57368354874362,-114.90000000000002 64.9519052838329,-79.90000000000002 64.9519052838329,-82.90000000000002 125.57368354874362,-117.90000000000002" fill="#1a1c26"></polygon><polygon points="-79.67433714816836,45.99999999999999 45.03332099679081,117.99999999999999 45.03332099679081,-98.00000000000001 -79.67433714816836,-170" fill="#1a1c26"></polygon><polygon points="15.588457268119896,0.9999999999999982 12.124355652982143,2.9999999999999982 12.124355652982143,-213 15.588457268119896,-215" fill="#30323f" stroke="#363948" stroke-width="1"></polygon><polygon points="10.392304845413264,-218 15.588457268119896,-215 12.124355652982143,-213 6.92820323027551,-216" fill="#696c7b" stroke="#363948" stroke-width="1"></polygon><polygon points="10.392304845413264,-2.000000000000001 15.588457268119896,0.9999999999999982 15.588457268119896,-215 10.392304845413264,-218" fill="#44475a" stroke="#363948" stroke-width="1"></polygon><polygon points="128.17175976009693,65.99999999999999 124.70765814495917,67.99999999999999 124.70765814495917,-148 128.17175976009693,-150" fill="#30323f" stroke="#363948" stroke-width="1"></polygon><polygon points="122.9756073373903,-153 128.17175976009693,-150 124.70765814495917,-148 119.51150572225254,-151" fill="#696c7b" stroke="#363948" stroke-width="1"></polygon><polygon points="122.9756073373903,62.999999999999986 128.17175976009693,65.99999999999999 128.17175976009693,-150 122.9756073373903,-153" fill="#44475a" stroke="#363948" stroke-width="1"></polygon><circle cx="12.99038105676658" cy="-9.5" r="1.5" fill="#282a36"></circle><circle cx="125.57368354874362" cy="55.499999999999986" r="1.5" fill="#282a36"></circle><circle cx="12.99038105676658" cy="-27.5" r="1.5" fill="#282a36"></circle><circle cx="125.57368354874362" cy="37.499999999999986" r="1.5" fill="#282a36"></circle><circle cx="12.99038105676658" cy="-45.5" r="1.5" fill="#282a36"></circle><circle cx="125.57368354874362" cy="19.499999999999986" r="1.5" fill="#282a36"></circle><circle cx="12.99038105676658" cy="-63.5" r="1.5" fill="#282a36"></circle><circle cx="125.57368354874362" cy="1.4999999999999858" r="1.5" fill="#282a36"></circle><circle cx="12.99038105676658" cy="-81.5" r="1.5" fill="#282a36"></circle><circle cx="125.57368354874362" cy="-16.500000000000014" r="1.5" fill="#282a36"></circle><circle cx="12.99038105676658" cy="-99.5" r="1.5" fill="#282a36"></circle><circle cx="125.57368354874362" cy="-34.500000000000014" r="1.5" fill="#282a36"></circle><circle cx="12.99038105676658" cy="-117.5" r="1.5" fill="#282a36"></circle><circle cx="125.57368354874362" cy="-52.500000000000014" r="1.5" fill="#282a36"></circle><circle cx="12.99038105676658" cy="-135.5" r="1.5" fill="#282a36"></circle><circle cx="125.57368354874362" cy="-70.50000000000001" r="1.5" fill="#282a36"></circle><circle cx="12.99038105676658" cy="-153.5" r="1.5" fill="#282a36"></circle><circle cx="125.57368354874362" cy="-88.50000000000001" r="1.5" fill="#282a36"></circle><circle cx="12.99038105676658" cy="-171.5" r="1.5" fill="#282a36"></circle><circle cx="125.57368354874362" cy="-106.50000000000001" r="1.5" fill="#282a36"></circle><circle cx="12.99038105676658" cy="-189.5" r="1.5" fill="#282a36"></circle><circle cx="125.57368354874362" cy="-124.50000000000001" r="1.5" fill="#282a36"></circle><circle cx="12.99038105676658" cy="-207.5" r="1.5" fill="#282a36"></circle><circle cx="125.57368354874362" cy="-142.5" r="1.5" fill="#282a36"></circle><circle cx="4.330127018922194" cy="-219.5" r="3" fill="#50fa7b" filter="url(#ledGlow)"></circle><circle cx="11.258330249197703" cy="-215.5" r="3" fill="#50fa7b" filter="url(#ledGlow)"></circle><circle cx="18.186533479473212" cy="-211.5" r="3" fill="#ff5555" filter="url(#ledGlow)"></circle><polygon points="119.51150572225254,62.999999999999986 41.569219381653056,107.99999999999999 41.569219381653056,72.99999999999999 119.51150572225254,27.999999999999986" fill="#3cbc5c" stroke="#30964a" stroke-width="1"></polygon><polygon points="15.588457268119896,-32 119.51150572225254,27.999999999999986 41.569219381653056,72.99999999999999 -62.353829072479584,12.999999999999993" fill="#6afb8f" stroke="#30964a" stroke-width="1"></polygon><polygon points="15.588457268119896,2.9999999999999982 119.51150572225254,62.999999999999986 119.51150572225254,27.999999999999986 15.588457268119896,-32" fill="#50fa7b" stroke="#30964a" stroke-width="1"></polygon><line x1="21.65063509461097" y1="-2.700000000000001" x2="116.91342951089922" y2="52.29999999999998" stroke="#44d569" stroke-width="1"></line><line x1="21.65063509461097" y1="-9.9" x2="116.91342951089922" y2="45.09999999999999" stroke="#44d569" stroke-width="1"></line><line x1="21.65063509461097" y1="-17.1" x2="116.91342951089922" y2="37.899999999999984" stroke="#44d569" stroke-width="1"></line><line x1="21.65063509461097" y1="-24.299999999999997" x2="116.91342951089922" y2="30.69999999999999" stroke="#44d569" stroke-width="1"></line><polygon points="119.51150572225254,26.999999999999986 84.870489570875,46.999999999999986 84.870489570875,29.999999999999986 119.51150572225254,9.999999999999986" fill="#4a567b" stroke="#3b4462" stroke-width="1"></polygon><polygon points="15.588457268119896,-50 119.51150572225254,9.999999999999986 84.870489570875,29.999999999999986 -19.052558883257653,-30.000000000000004" fill="#7a87b2" stroke="#3b4462" stroke-width="1"></polygon><polygon points="15.588457268119896,-33 119.51150572225254,26.999999999999986 119.51150572225254,9.999999999999986 15.588457268119896,-50" fill="#6272a4" stroke="#3b4462" stroke-width="1"></polygon><line x1="21.65063509461097" y1="-37.5" x2="116.91342951089922" y2="17.499999999999986" stroke="#53618b" stroke-width="1"></line><line x1="21.65063509461097" y1="-43.5" x2="116.91342951089922" y2="11.499999999999986" stroke="#53618b" stroke-width="1"></line><polygon points="119.51150572225254,8.999999999999986 84.870489570875,28.999999999999986 84.870489570875,11.999999999999986 119.51150572225254,-8.000000000000014" fill="#68afbe" stroke="#538c98" stroke-width="1"></polygon><polygon points="15.588457268119896,-68 119.51150572225254,-8.000000000000014 84.870489570875,11.999999999999986 -19.052558883257653,-48" fill="#9cecfd" stroke="#538c98" stroke-width="1"></polygon><polygon points="15.588457268119896,-51 119.51150572225254,8.999999999999986 119.51150572225254,-8.000000000000014 15.588457268119896,-68" fill="#8be9fd" stroke="#538c98" stroke-width="1"></polygon><line x1="21.65063509461097" y1="-55.5" x2="116.91342951089922" y2="-0.5000000000000142" stroke="#76c6d7" stroke-width="1"></line><line x1="21.65063509461097" y1="-61.5" x2="116.91342951089922" y2="-6.500000000000014" stroke="#76c6d7" stroke-width="1"></line><circle cx="24.248711305964285" cy="-60" r="2" fill="#50fa7b"></circle><circle cx="29.444863728670917" cy="-57" r="2" fill="#50fa7b"></circle><circle cx="34.64101615137755" cy="-54" r="2" fill="#ffb86c"></circle><circle cx="39.83716857408418" cy="-51" r="2" fill="#ffb86c"></circle><polygon points="119.51150572225254,-9.000000000000014 41.569219381653056,35.999999999999986 41.569219381653056,0.9999999999999858 119.51150572225254,-44.000000000000014" fill="#8e6ebb" stroke="#715895" stroke-width="1"></polygon><polygon points="15.588457268119896,-104 119.51150572225254,-44.000000000000014 41.569219381653056,0.9999999999999858 -62.353829072479584,-59.00000000000001" fill="#c7a3fa" stroke="#715895" stroke-width="1"></polygon><polygon points="15.588457268119896,-69 119.51150572225254,-9.000000000000014 119.51150572225254,-44.000000000000014 15.588457268119896,-104" fill="#bd93f9" stroke="#715895" stroke-width="1"></polygon><line x1="21.65063509461097" y1="-74.7" x2="116.91342951089922" y2="-19.700000000000017" stroke="#a17dd4" stroke-width="1"></line><line x1="21.65063509461097" y1="-81.9" x2="116.91342951089922" y2="-26.90000000000002" stroke="#a17dd4" stroke-width="1"></line><line x1="21.65063509461097" y1="-89.1" x2="116.91342951089922" y2="-34.10000000000001" stroke="#a17dd4" stroke-width="1"></line><line x1="21.65063509461097" y1="-96.3" x2="116.91342951089922" y2="-41.30000000000001" stroke="#a17dd4" stroke-width="1"></line><circle cx="24.248711305964285" cy="-96" r="2" fill="#50fa7b"></circle><circle cx="29.444863728670917" cy="-93" r="2" fill="#50fa7b"></circle><circle cx="34.64101615137755" cy="-90" r="2" fill="#ffb86c"></circle><circle cx="39.83716857408418" cy="-87" r="2" fill="#ffb86c"></circle><polygon points="119.51150572225254,-45.000000000000014 41.569219381653056,-1.4210854715202004e-14 41.569219381653056,-71.00000000000001 119.51150572225254,-116.00000000000001" fill="#bf8a51" stroke="#996e41" stroke-width="1"></polygon><polygon points="15.588457268119896,-176 119.51150572225254,-116.00000000000001 41.569219381653056,-71.00000000000001 -62.353829072479584,-131" fill="#ffc382" stroke="#996e41" stroke-width="1"></polygon><polygon points="15.588457268119896,-105 119.51150572225254,-45.000000000000014 119.51150572225254,-116.00000000000001 15.588457268119896,-176" fill="#ffb86c" stroke="#996e41" stroke-width="1"></polygon><line x1="21.65063509461097" y1="-110.7" x2="116.91342951089922" y2="-55.70000000000002" stroke="#d99c5c" stroke-width="1"></line><line x1="21.65063509461097" y1="-117.9" x2="116.91342951089922" y2="-62.90000000000002" stroke="#d99c5c" stroke-width="1"></line><line x1="21.65063509461097" y1="-125.1" x2="116.91342951089922" y2="-70.10000000000001" stroke="#d99c5c" stroke-width="1"></line><line x1="21.65063509461097" y1="-132.3" x2="116.91342951089922" y2="-77.30000000000003" stroke="#d99c5c" stroke-width="1"></line><line x1="21.65063509461097" y1="-139.5" x2="116.91342951089922" y2="-84.50000000000001" stroke="#d99c5c" stroke-width="1"></line><line x1="21.65063509461097" y1="-146.7" x2="116.91342951089922" y2="-91.7" stroke="#d99c5c" stroke-width="1"></line><line x1="21.65063509461097" y1="-153.9" x2="116.91342951089922" y2="-98.90000000000002" stroke="#d99c5c" stroke-width="1"></line><line x1="21.65063509461097" y1="-161.1" x2="116.91342951089922" y2="-106.10000000000001" stroke="#d99c5c" stroke-width="1"></line><line x1="21.65063509461097" y1="-168.3" x2="116.91342951089922" y2="-113.30000000000003" stroke="#d99c5c" stroke-width="1"></line><polygon points="92.66471820493494,-81 114.3153532995459,-68.50000000000001 114.3153532995459,-57.000000000000014 92.66471820493494,-69.5" fill="#cc9356" stroke="#996e41" stroke-width="1"></polygon><circle cx="95.26279441628826" cy="-73.75" r="1.5" fill="#50fa7b"></circle><polygon points="92.66471820493494,-96.5 114.3153532995459,-84.00000000000001 114.3153532995459,-72.50000000000001 92.66471820493494,-85" fill="#cc9356" stroke="#996e41" stroke-width="1"></polygon><circle cx="95.26279441628826" cy="-89.25" r="1.5" fill="#50fa7b"></circle><polygon points="92.66471820493494,-112 114.3153532995459,-99.50000000000001 114.3153532995459,-88.00000000000001 92.66471820493494,-100.5" fill="#cc9356" stroke="#996e41" stroke-width="1"></polygon><circle cx="95.26279441628826" cy="-104.75" r="1.5" fill="#50fa7b"></circle><polygon points="92.66471820493494,-127.5 114.3153532995459,-115.00000000000001 114.3153532995459,-103.50000000000001 92.66471820493494,-116" fill="#cc9356" stroke="#996e41" stroke-width="1"></polygon><circle cx="95.26279441628826" cy="-120.25" r="1.5" fill="#50fa7b"></circle><polygon points="119.51150572225254,-117.00000000000001 84.870489570875,-97.00000000000001 84.870489570875,-114.00000000000001 119.51150572225254,-134" fill="#333544" stroke="#292b36" stroke-width="1"></polygon><polygon points="15.588457268119896,-194 119.51150572225254,-134 84.870489570875,-114.00000000000001 -19.052558883257653,-174" fill="#606373" stroke="#292b36" stroke-width="1"></polygon><polygon points="15.588457268119896,-177 119.51150572225254,-117.00000000000001 119.51150572225254,-134 15.588457268119896,-194" fill="#44475a" stroke="#292b36" stroke-width="1"></polygon><line x1="21.65063509461097" y1="-181.5" x2="116.91342951089922" y2="-126.50000000000001" stroke="#3a3c4d" stroke-width="1"></line><line x1="21.65063509461097" y1="-187.5" x2="116.91342951089922" y2="-132.5" stroke="#3a3c4d" stroke-width="1"></line></g><text x="521.0511776651531" y="442" fill="#6272a4" font-family="Inter, system-ui, sans-serif" font-size="11" text-anchor="middle">REAR</text><g><text x="60" y="472" fill="#f8f8f2" font-family="Inter, system-ui, sans-serif" font-size="12" font-weight="bold">DEVICES</text><rect x="60" y="482" width="12" height="12" fill="#50fa7b" stroke="#38af56" stroke-width="1"></rect><text x="80" y="492" fill="#f8f8f2" font-family="Inter, system-ui, sans-serif" font-size="11">UPS (2U)</text><rect x="60" y="502" width="12" height="12" fill="#6272a4" stroke="#455073" stroke-width="1"></rect><text x="66" y="511" fill="#313952" font-family="Inter, system-ui, sans-serif" font-size="8" font-weight="bold" text-anchor="middle">½</text><text x="80" y="512" fill="#f8f8f2" font-family="Inter, system-ui, sans-serif" font-size="11">Patch Panel (1U)</text><rect x="60" y="522" width="12" height="12" fill="#8be9fd" stroke="#61a3b1" stroke-width="1"></rect><text x="66" y="531" fill="#46757f" font-family="Inter, system-ui, sans-serif" font-size="8" font-weight="bold" text-anchor="middle">½</text><text x="80" y="532" fill="#f8f8f2" font-family="Inter, system-ui, sans-serif" font-size="11">Network Switch (1U)</text><rect x="60" y="542" width="12" height="12" fill="#bd93f9" stroke="#8467ae" stroke-width="1"></rect><text x="80" y="552" fill="#f8f8f2" font-family="Inter, system-ui, sans-serif" font-size="11">Server (2U)</text><rect x="60" y="562" width="12" height="12" fill="#ffb86c" stroke="#b3814c" stroke-width="1"></rect><text x="80" y="572" fill="#f8f8f2" font-family="Inter, system-ui, sans-serif" font-size="11">NAS (4U)</text><rect x="60" y="582" width="12" height="12" fill="#44475a" stroke="#30323f" stroke-width="1"></rect><text x="66" y="591" fill="#22242d" font-family="Inter, system-ui, sans-serif" font-size="8" font-weight="bold" text-anchor="middle">½</text><text x="80" y="592" fill="#f8f8f2" font-family="Inter, system-ui, sans-serif" font-size="11">Blank Panel (1U)</text></g></svg>